<?xml version="1.0" standalone="no"?><!DOCTYPE svg PUBLIC "-//W3C//DTD SVG 1.1//EN" "http://www.w3.org/Graphics/SVG/1.1/DTD/svg11.dtd"><svg t="1611653071446" class="icon" viewBox="0 0 1024 1024" version="1.1" xmlns="http://www.w3.org/2000/svg" p-id="950" xmlns:xlink="http://www.w3.org/1999/xlink" width="200" height="200"><defs><style type="text/css"></style></defs><path d="M512 42.666667c260.266667 0 469.333333 209.066667 469.333333 469.333333s-209.066667 469.333333-469.333333 469.333333S42.666667 772.266667 42.666667 512 251.733333 42.666667 512 42.666667z" fill="#FFFFFF" p-id="951"></path><path d="M512 1013.333333C234.666667 1013.333333 10.666667 789.333333 10.666667 512S234.666667 10.666667 512 10.666667 1013.333333 234.666667 1013.333333 512 789.333333 1013.333333 512 1013.333333z m0-938.666666C270.933333 74.666667 74.666667 270.933333 74.666667 512S270.933333 949.333333 512 949.333333 949.333333 753.066667 949.333333 512 753.066667 74.666667 512 74.666667z" fill="#333333" p-id="952"></path><path d="M512 170.666667c187.733333 0 341.333333 153.6 341.333333 341.333333s-153.6 341.333333-341.333333 341.333333S170.666667 699.733333 170.666667 512 324.266667 170.666667 512 170.666667z" fill="#EA5406" p-id="953"></path><path d="M512 885.333333c-204.8 0-373.333333-168.533333-373.333333-373.333333S307.2 138.666667 512 138.666667 885.333333 307.2 885.333333 512 716.8 885.333333 512 885.333333z m0-682.666666C341.333333 202.666667 202.666667 341.333333 202.666667 512S341.333333 821.333333 512 821.333333 821.333333 682.666667 821.333333 512 682.666667 202.666667 512 202.666667z" fill="#333333" p-id="954"></path><path d="M520.533333 401.066667l-21.333333-76.8 61.866667-17.066667 21.333333 76.8-61.866667 17.066667z m27.733334 317.866666l-64-8.533333 34.133333-270.933333 64 8.533333-34.133333 270.933333z" fill="#FFFFFF" p-id="955"></path></svg>