<?xml version="1.0" standalone="no"?><!DOCTYPE svg PUBLIC "-//W3C//DTD SVG 1.1//EN" "http://www.w3.org/Graphics/SVG/1.1/DTD/svg11.dtd"><svg t="1611935372641" class="icon" viewBox="0 0 1024 1024" version="1.1" xmlns="http://www.w3.org/2000/svg" p-id="1779" xmlns:xlink="http://www.w3.org/1999/xlink" width="200" height="200"><defs><style type="text/css"></style></defs><path d="M21.39176 1023.99872a21.205307 21.205307 0 0 1-19.071976-30.847961l271.231661-542.463322c127.99984-273.066325 405.887493-450.047437 707.839115-450.687437C1004.942531 0 1024.09984 19.157309 1024.09984 42.666613c0.170666 21.461307-13.525316 40.447949-34.090624 47.103941a595.753922 595.753922 0 0 0-296.447629 241.578365 21.333307 21.333307 0 0 1-18.090645 9.983988h-90.538553l53.375933 53.375933a21.247973 21.247973 0 0 1 3.882662 24.831969 852.478934 852.478934 0 0 0-30.719962 66.602583 521.386015 521.386015 0 0 1-470.100745 324.266262L40.463736 1012.180068A21.119974 21.119974 0 0 1 21.39176 1023.99872zM981.433227 42.666613c-285.524976 0.639999-548.308648 168.06379-669.48183 426.5808L163.258249 766.719042a476.927404 476.927404 0 0 0 235.434373-81.919898l-51.02927-51.02927a21.333307 21.333307 0 0 1 30.207962-30.207962l55.295931 55.295931c20.010642-16.511979 38.783952-34.77329 55.93593-54.399932l-56.06393-56.06393a21.333307 21.333307 0 1 1 30.165296-30.165295l52.650601 52.6506c22.613305-31.189294 41.514615-65.066585 56.149263-100.90654 7.722657-18.858643 16.042647-37.247953 25.258635-55.978597l-48.853272-48.853272A38.997285 38.997285 0 0 1 576.057733 298.666293h87.722557a640.639199 640.639199 0 0 1 312.234277-249.215688c3.498662-1.151999 5.41866-3.626662 5.41866-6.613325V42.666613z" p-id="1780"></path></svg>