<?xml version="1.0" standalone="no"?><!DOCTYPE svg PUBLIC "-//W3C//DTD SVG 1.1//EN" "http://www.w3.org/Graphics/SVG/1.1/DTD/svg11.dtd"><svg t="1611642942895" class="icon" viewBox="0 0 1024 1024" version="1.1" xmlns="http://www.w3.org/2000/svg" p-id="819" xmlns:xlink="http://www.w3.org/1999/xlink" width="200" height="200"><defs><style type="text/css"></style></defs><path d="M181.333333 906.666667A32 32 0 0 1 149.333333 874.666667V618.666667a32 32 0 1 1 64 0v256a32 32 0 0 1-32 32zM394.666667 906.666667A32 32 0 0 1 362.666667 874.666667V576a32 32 0 1 1 64 0v298.666667a32 32 0 0 1-32 32zM608 906.666667A32 32 0 0 1 576 874.666667V533.333333a32 32 0 0 1 64 0v341.333334a32 32 0 0 1-32 32zM821.333333 906.666667A32 32 0 0 1 789.333333 874.666667V405.333333a32 32 0 0 1 64 0v469.333334a32 32 0 0 1-32 32zM896 170.666667v106.666666c0 17.706667-14.293333 32-32 32S832 295.04 832 277.333333v-31.146666C669.866667 413.866667 425.173333 512 160 512c-17.706667 0-32-14.293333-32-32S142.293333 448 160 448c252.8 0 485.12-94.72 635.306667-256H725.333333c-17.706667 0-32-14.293333-32-32S707.626667 128 725.333333 128h128c1.92 0 3.84 0.213333 5.76 0.64 8.32-1.493333 17.066667 0.426667 24.32 5.973333 9.813333 7.466667 14.08 19.413333 12.16 30.933334 0.213333 1.706667 0.426667 3.413333 0.426667 5.12z" p-id="820"></path></svg>