<?xml version="1.0" standalone="no"?><!DOCTYPE svg PUBLIC "-//W3C//DTD SVG 1.1//EN" "http://www.w3.org/Graphics/SVG/1.1/DTD/svg11.dtd"><svg t="1611643768563" class="icon" viewBox="0 0 1077 1024" version="1.1" xmlns="http://www.w3.org/2000/svg" p-id="1334" xmlns:xlink="http://www.w3.org/1999/xlink" width="210.3515625" height="200"><defs><style type="text/css"></style></defs><path d="M755.2 0H89.6a89.6 89.6 0 0 0-89.6 89.6v793.6a89.6 89.6 0 0 0 89.6 89.6h665.6a89.6 89.6 0 0 0 89.6-89.6V89.6a89.6 89.6 0 0 0-89.6-89.6zM89.6 76.8h665.6a12.8 12.8 0 0 1 12.8 12.8v793.6a12.8 12.8 0 0 1-12.8 12.8H89.6a12.8 12.8 0 0 1-12.8-12.8V89.6a12.8 12.8 0 0 1 12.8-12.8z" fill="#303133" p-id="1335"></path><path d="M217.6 665.6a51.2 51.2 0 1 1 0 102.4 51.2 51.2 0 0 1 0-102.4z m435.2 12.8a38.4 38.4 0 0 1 2.2528 76.736L652.8 755.2H371.2a38.4 38.4 0 0 1-2.2528-76.736L371.2 678.4h281.6zM217.6 435.2a51.2 51.2 0 1 1 0 102.4 51.2 51.2 0 0 1 0-102.4z m435.2 12.8a38.4 38.4 0 0 1 2.2528 76.736L652.8 524.8H371.2a38.4 38.4 0 0 1-2.2528-76.736L371.2 448h281.6zM217.6 204.8a51.2 51.2 0 1 1 0 102.4 51.2 51.2 0 0 1 0-102.4z m435.2 12.8a38.4 38.4 0 0 1 2.2528 76.736L652.8 294.4H371.2a38.4 38.4 0 0 1-2.2528-76.736L371.2 217.6h281.6z" fill="#FF6F26" p-id="1336"></path></svg>