<?xml version="1.0" standalone="no"?><!DOCTYPE svg PUBLIC "-//W3C//DTD SVG 1.1//EN" "http://www.w3.org/Graphics/SVG/1.1/DTD/svg11.dtd"><svg t="1611992617204" class="icon" viewBox="0 0 1024 1024" version="1.1" xmlns="http://www.w3.org/2000/svg" p-id="1911" xmlns:xlink="http://www.w3.org/1999/xlink" width="200" height="200"><defs><style type="text/css"></style></defs><path d="M618.666667 512a21.461333 21.461333 0 0 1-21.333334-21.333333V426.666667h-21.333333a21.333333 21.333333 0 0 1 0-42.666667h42.666667a21.333333 21.333333 0 0 1 21.333333 21.333333v40.96l72.021333-57.6A21.290667 21.290667 0 0 1 725.333333 384h85.333334c94.122667 0 170.666667-76.544 170.666666-170.666667s-76.544-170.666667-170.666666-170.666666h-256c-94.122667 0-170.666667 76.544-170.666667 170.666666a21.333333 21.333333 0 0 1-42.666667 0c0-117.632 95.701333-213.333333 213.333334-213.333333h256c117.632 0 213.333333 95.701333 213.333333 213.333333s-95.701333 213.333333-213.333333 213.333334h-77.866667l-100.821333 80.64a21.290667 21.290667 0 0 1-13.312 4.693333z" p-id="1912"></path><path d="M21.333333 1024a21.504 21.504 0 0 1-21.333333-21.589333 391.125333 391.125333 0 0 1 31.573333-149.888c23.466667-47.061333 98.858667-74.794667 203.221334-113.152l27.093333-9.984c0.64-0.426667 3.456-3.754667 5.589333-12.629334 5.546667-22.826667 0.341333-51.584-2.688-56.405333a239.786667 239.786667 0 0 1-62.293333-183.68A163.498667 163.498667 0 0 1 239.488 358.4 163.541333 163.541333 0 0 1 362.112 298.666667a164.309333 164.309333 0 0 1 116.010667 51.029333 162.944 162.944 0 0 1 44.885333 126.976 240.341333 240.341333 0 0 1-62.762667 184.234667c-2.602667 4.309333-7.765333 33.066667-2.218666 55.850666 2.176 8.832 4.949333 12.202667 5.76 12.714667l26.88 9.898667c104.32 38.357333 179.754667 66.090667 202.666666 112a393.984 393.984 0 0 1 32.128 151.04 21.12 21.12 0 0 1-6.186666 15.232 21.162667 21.162667 0 0 1-15.104 6.357333H21.333333z m660.608-42.666667a348.330667 348.330667 0 0 0-27.264-112.042666c-14.848-29.610667-90.752-57.514667-178.688-89.856l-27.136-9.984c-11.008-4.096-25.514667-14.762667-32.256-42.538667-7.381333-30.250667-3.712-77.226667 12.202667-94.762667a197.589333 197.589333 0 0 0 51.541333-153.301333 22.826667 22.826667 0 0 1 0-4.181333A121.898667 121.898667 0 0 0 362.453333 341.333333a121.002667 121.002667 0 0 0-90.069333 44.245334 120.96 120.96 0 0 0-27.264 89.130666 22.357333 22.357333 0 0 1 0 4.138667 197.546667 197.546667 0 0 0 51.456 153.173333c16 17.621333 19.712 64.597333 12.330667 94.890667-6.741333 27.776-21.248 38.442667-32.213334 42.538667l-27.178666 10.026666c-87.936 32.341333-163.882667 60.245333-179.242667 91.008A347.477333 347.477333 0 0 0 43.562667 981.333333h638.378666zM810.666667 245.333333a32 32 0 0 1-1.962667-63.829333A10.453333 10.453333 0 0 1 810.666667 181.333333a32 32 0 0 1 0 64zM682.666667 245.333333a32 32 0 0 1-32-32c0-16.384 12.288-29.952 28.629333-31.701333l1.28-0.085333A6.912 6.912 0 0 1 682.666667 181.333333a32 32 0 0 1 0 64zM554.666667 245.333333a32 32 0 0 1-1.066667-63.914666h0.170667c18.645333 0 32.896 14.336 32.896 31.914666a32 32 0 0 1-32 32z" p-id="1913"></path></svg>