<?xml version="1.0" standalone="no"?><!DOCTYPE svg PUBLIC "-//W3C//DTD SVG 1.1//EN" "http://www.w3.org/Graphics/SVG/1.1/DTD/svg11.dtd"><svg t="1611643642122" class="icon" viewBox="0 0 1107 1024" version="1.1" xmlns="http://www.w3.org/2000/svg" p-id="2064" data-spm-anchor-id="a313x.7781069.0.i1" xmlns:xlink="http://www.w3.org/1999/xlink" width="216.2109375" height="200"><defs><style type="text/css"></style></defs><path d="M655.6416 534.3616a89.6 89.6 0 0 1 44.736 74.176l0.064 3.4176v158.4896a89.6 89.6 0 0 1-41.856 75.8272l-2.944 1.7664-137.2416 79.232a89.6 89.6 0 0 1-86.3744 1.792l-3.2256-1.792-137.2416-79.232a89.6 89.6 0 0 1-44.736-74.176l-0.064-3.4176V611.9552a89.6 89.6 0 0 1 44.8-77.5936 38.4 38.4 0 1 1 38.4 66.5088 12.8 12.8 0 0 0-6.3104 9.5744l-0.0896 1.5104v158.4896a12.8 12.8 0 0 0 5.12 10.24l1.28 0.8448 137.2416 79.232a12.8 12.8 0 0 0 11.264 0.7552l1.536-0.7552 137.2416-79.232a12.8 12.8 0 0 0 6.3104-9.5744l0.0896-1.5104V611.9552a12.8 12.8 0 0 0-6.4-11.0848 38.4 38.4 0 1 1 38.4-66.5088z m102.7328-503.424l3.2256 1.792 137.2416 79.232a89.6 89.6 0 0 1 44.736 74.176l0.064 3.4176v158.4896a89.6 89.6 0 0 1-41.856 75.8272l-2.944 1.7664-137.2416 79.232a89.6 89.6 0 0 1-89.6 0 38.4 38.4 0 0 1 38.4-66.5088 12.8 12.8 0 0 0 11.264 0.7552l1.536-0.7552 137.2416-79.232a12.8 12.8 0 0 0 6.3104-9.5744l0.0896-1.5104V189.5552a12.8 12.8 0 0 0-5.12-10.24l-1.28-0.8448-137.2416-79.232a12.8 12.8 0 0 0-11.264-0.7552l-1.536 0.7552-137.2416 79.232a12.8 12.8 0 0 0-6.4 11.0848 38.4 38.4 0 1 1-76.8 0 89.6 89.6 0 0 1 41.856-75.8272l2.944-1.7664L672 32.7296a89.6 89.6 0 0 1 86.3744-1.792z m-486.4-12.8l3.2256 1.792 137.2416 79.232a89.6 89.6 0 0 1 44.8 77.5936 38.4 38.4 0 0 1-76.8 0 12.8 12.8 0 0 0-5.12-10.24l-1.28-0.8448L236.8 86.4384a12.8 12.8 0 0 0-11.264-0.7552l-1.536 0.7552-137.2416 79.232a12.8 12.8 0 0 0-6.3104 9.5744l-0.0896 1.5104v158.4896a12.8 12.8 0 0 0 5.12 10.24l1.28 0.8448 137.2416 79.232a12.8 12.8 0 0 0 12.8 0 38.4 38.4 0 1 1 38.4 66.5088 89.6 89.6 0 0 1-86.3744 1.792l-3.2256-1.792-137.2416-79.232a89.6 89.6 0 0 1-44.736-74.176l-0.064-3.4176V176.7552a89.6 89.6 0 0 1 41.856-75.8272l2.944-1.7664L185.6 19.9296a89.6 89.6 0 0 1 86.3744-1.792z" fill="#8a8a8a" p-id="2065" data-spm-anchor-id="a313x.7781069.0.i5" class="selected"></path><path d="M428.8 160.7296l-137.2416 79.232a89.6 89.6 0 0 0-44.8 77.5936v158.4896a89.6 89.6 0 0 0 44.8 77.5936l137.2416 79.232a89.6 89.6 0 0 0 89.6 0l137.2416-79.232a89.6 89.6 0 0 0 44.8-77.5936V317.5552a89.6 89.6 0 0 0-44.8-77.5936L518.4 160.7296a89.6 89.6 0 0 0-89.6 0z m51.2 66.5088l137.2416 79.232a12.8 12.8 0 0 1 6.4 11.0848v158.4896a12.8 12.8 0 0 1-6.4 11.0848L480 566.3616a12.8 12.8 0 0 1-12.8 0l-137.2416-79.232a12.8 12.8 0 0 1-6.4-11.0848V317.5552a12.8 12.8 0 0 1 6.4-11.0848l137.2416-79.232a12.8 12.8 0 0 1 12.8 0z" fill="#e6e6e6" p-id="2066" data-spm-anchor-id="a313x.7781069.0.i2" class="selected"></path></svg>